<svg xmlns="http://www.w3.org/2000/svg" width="27.358" height="22.255" viewBox="0 0 27.358 22.255"><defs><style>.a{fill:#656565;}</style></defs><g transform="translate(0 0)"><path class="a" d="M27.123,17.681a.8.8,0,0,0-.567-.235H25.19V3.768a.8.8,0,0,0-.8-.8H14.48V.8a.8.8,0,0,0-.8-.8H.8A.8.8,0,0,0,0,.8v9.661a.8.8,0,0,0,.8.8H2.168v6.182H.8a.8.8,0,0,0-.8.8v.535a3.477,3.477,0,0,0,3.473,3.472H23.885a3.477,3.477,0,0,0,3.473-3.473v-.535a.8.8,0,0,0-.235-.567ZM1.6,1.6H12.877V9.661H1.6Zm12.075,9.661a.8.8,0,0,0,.8-.8V4.569h9.107V17.422H22.015v-2.4a2.406,2.406,0,0,0-1.234-2.1,2.583,2.583,0,1,0-4.478,0,2.406,2.406,0,0,0-1.234,2.1v2.4H3.771V11.264Zm3.883.369a.98.98,0,1,1,.98.98A.981.981,0,0,1,17.562,11.633Zm-.891,3.384a.8.8,0,0,1,.8-.8H19.61a.8.8,0,0,1,.8.8V17.4h-3.74Zm7.213,5.636H3.473a1.873,1.873,0,0,1-1.851-1.6H25.736A1.873,1.873,0,0,1,23.885,20.652Zm0,0" transform="translate(0 0)"/><path class="a" d="M67.271,60H60.805a.8.8,0,1,0,0,1.6h6.465a.8.8,0,0,0,0-1.6Zm0,0" transform="translate(-56.798 -56.797)"/><path class="a" d="M65.134,120H60.805a.8.8,0,0,0,0,1.6h4.328a.8.8,0,0,0,0-1.6Zm0,0" transform="translate(-56.798 -113.591)"/></g></svg>